<?xml version="1.0" encoding="utf-8"?>
<svg version="1.1" id="Layer_1" xmlns="http://www.w3.org/2000/svg" xmlns:xlink="http://www.w3.org/1999/xlink" x="0px" y="0px" viewBox="0 0 122.88 122.88" style="enable-background:new 0 0 122.88 122.88" xml:space="preserve">
   <style type="text/css">.st0{fill-rule:evenodd;clip-rule:evenodd;fill:#E6E6E6;} .st1{fill-rule:evenodd;clip-rule:evenodd;fill:#ffa513;} .st2{fill:#393939;}</style>
   <g>
      <path class="st0" d="M61.44,0c33.93,0,61.44,27.51,61.44,61.44s-27.51,61.44-61.44,61.44v-20.82c0.11,0,0.22,0,0.33,0 c22.43,0,40.62-18.19,40.62-40.62S84.2,20.82,61.77,20.82c-0.11,0-0.22,0-0.33,0V0z"/>
      <path class="st1" d="M61.44,102.06v20.82C27.51,122.88,0,95.37,0,61.44S27.51,0,61.44,0v20.82C39.16,21,21.15,39.12,21.15,61.44 C21.15,83.76,39.16,101.88,61.44,102.06L61.44,102.06z"/>
   </g>
</svg>