<?xml version="1.0" encoding="utf-8"?>
<svg version="1.1" id="Layer_1" xmlns="http://www.w3.org/2000/svg" xmlns:xlink="http://www.w3.org/1999/xlink" x="0px" y="0px" viewBox="0 0 122.88 122.88" style="enable-background:new 0 0 122.88 122.88" xml:space="preserve">
   <style type="text/css">.st0{fill-rule:evenodd;clip-rule:evenodd;fill:#E6E6E6;} .st1{fill-rule:evenodd;clip-rule:evenodd;fill:#ffa513;} .st2{fill:#393939;}</style>
   <g>
      <path class="st0" d="M61.44,0c33.93,0,61.44,27.51,61.44,61.44h-20.49c0-22.43-18.19-40.62-40.62-40.62c-0.11,0-0.22,0-0.33,0V0z"/>
      <path class="st1" d="M102.39,61.44h20.49c0,33.93-27.51,61.44-61.44,61.44S0,95.37,0,61.44S27.51,0,61.44,0v20.82 C39.16,21,21.15,39.12,21.15,61.44c0,22.43,18.19,40.62,40.62,40.62C84.2,102.06,102.39,83.87,102.39,61.44L102.39,61.44z"/>
   </g>
</svg>